<svg xmlns="http://www.w3.org/2000/svg" class="graphdiagram" viewBox="-628.3053502871646 -536.7381644169782 1439 795"><g class="layer relationships"><g class="related-pair"><g class="relationship" transform="translate(-13.45790082157249,-124.78872936520423) rotate(-14.587454450174118)"><path class="relationship" d="M 29.965122109691208 1 L 603.2408869473604 1 L 603.2408869473604 4 L 611.2408869473604 0 L 603.2408869473604 -4 L 603.2408869473604 -1 L 29.965122109691208 -1 Z" fill="rgba(0, 0, 0, 0.3)" stroke="rgb(51, 51, 51)" stroke-width="0px"/><text class="type" text-anchor="middle" baseline-shift="30%" alignment-baseline="alphabetic" x="316.6030045285258" y="0" font-size="14px" font-family="&quot;Helvetica Neue&quot;, Helvetica, Arial, sans-serif">FROM_COUNTRY</text></g></g><g class="related-pair"><g class="relationship" transform="translate(-13.45790082157249,-124.78872936520423) rotate(-160.83029540593378)"><path class="relationship" d="M 29.965122109691208 1 L 349.8713198069418 1 L 349.8713198069418 4 L 357.8713198069418 0 L 349.8713198069418 -4 L 349.8713198069418 -1 L 29.965122109691208 -1 Z" fill="rgba(0, 0, 0, 0.3)" stroke="rgb(51, 51, 51)" stroke-width="0px"/><text class="type" text-anchor="middle" baseline-shift="30%" alignment-baseline="alphabetic" transform="rotate(180)" x="-189.9182209583165" y="0" font-size="14px" font-family="&quot;Helvetica Neue&quot;, Helvetica, Arial, sans-serif">PART_OF</text></g></g><g class="related-pair"><g class="relationship" transform="translate(-13.45790082157249,-124.78872936520423) rotate(-130.3690431083735)"><path class="relationship" d="M 29.965122109691208 1 L 362.2466603093794 1 L 362.2466603093794 4 L 370.2466603093794 0 L 362.2466603093794 -4 L 362.2466603093794 -1 L 29.965122109691208 -1 Z" fill="rgba(0, 0, 0, 0.3)" stroke="rgb(51, 51, 51)" stroke-width="0px"/><text class="type" text-anchor="middle" baseline-shift="30%" alignment-baseline="alphabetic" x="-196.10589120953532" y="0" font-size="14px" font-family="&quot;Helvetica Neue&quot;, Helvetica, Arial, sans-serif" transform="rotate(180)">PARTICIPATES_IN</text></g></g><g class="related-pair"><g class="relationship" transform="translate(-13.45790082157249,-124.78872936520423) rotate(18.727345960525767)"><path class="relationship" d="M 29.965122109691208 1 L 558.8339636472114 1 L 558.8339636472114 4 L 566.8339636472114 0 L 558.8339636472114 -4 L 558.8339636472114 -1 L 29.965122109691208 -1 Z" fill="rgba(0, 0, 0, 0.3)" stroke="rgb(51, 51, 51)" stroke-width="0px"/><text class="type" text-anchor="middle" baseline-shift="30%" alignment-baseline="alphabetic" x="294.3995428784513" y="0" font-size="14px" font-family="&quot;Helvetica Neue&quot;, Helvetica, Arial, sans-serif">POSITIONED_AT</text></g></g><g class="related-pair"><g class="relationship" transform="translate(-13.45790082157249,-124.78872936520423) rotate(173.38282053978415)"><path class="relationship" d="M 29.965122109691208 1 L 414.0404170515506 1 L 414.0404170515506 4 L 422.0404170515506 0 L 414.0404170515506 -4 L 414.0404170515506 -1 L 29.965122109691208 -1 Z" fill="rgba(0, 0, 0, 0.3)" stroke="rgb(51, 51, 51)" stroke-width="0px"/><text class="type" text-anchor="middle" baseline-shift="30%" alignment-baseline="alphabetic" transform="rotate(180)" x="-222.0027695806209" y="0" font-size="14px" font-family="&quot;Helvetica Neue&quot;, Helvetica, Arial, sans-serif">DRIVER_ACCUMULATED_POINTS</text></g></g><g class="related-pair"><g class="relationship" transform="translate(-13.45790082157249,-124.78872936520423) rotate(127.77728625672958)"><path class="relationship" d="M 29.965122109691208 1 L 337.7438654140957 1 L 337.7438654140957 4 L 345.7438654140957 0 L 337.7438654140957 -4 L 337.7438654140957 -1 L 29.965122109691208 -1 Z" fill="rgba(0, 0, 0, 0.3)" stroke="rgb(51, 51, 51)" stroke-width="0px"/><text class="type" text-anchor="middle" baseline-shift="30%" alignment-baseline="alphabetic" transform="rotate(180)" x="-183.85449376189345" y="0" font-size="14px" font-family="&quot;Helvetica Neue&quot;, Helvetica, Arial, sans-serif">DRIVES</text></g></g><g class="related-pair"><g class="relationship" transform="translate(-273.4658908021598,-430.631730778078) rotate(0)"><path class="relationship" d="M 31.18091269349779 1 L 545.0253441476109 1 L 545.0253441476109 4 L 553.0253441476109 0 L 545.0253441476109 -4 L 545.0253441476109 -1 L 31.18091269349779 -1 Z" fill="rgba(0, 0, 0, 0.3)" stroke="rgb(51, 51, 51)" stroke-width="0px"/><text class="type" text-anchor="middle" baseline-shift="30%" alignment-baseline="alphabetic" x="288.1031284205543" y="0" font-size="14px" font-family="&quot;Helvetica Neue&quot;, Helvetica, Arial, sans-serif">ORGANIZED_IN</text></g></g><g class="related-pair"><g class="relationship" transform="translate(-391.1551761438352,-256.09295004665256) rotate(-14.062698200806382)"><path class="relationship" d="M 41.99869676672377 1 L 684.242241321847 1 L 684.242241321847 4 L 692.242241321847 0 L 684.242241321847 -4 L 684.242241321847 -1 L 41.99869676672377 -1 Z" fill="rgba(0, 0, 0, 0.3)" stroke="rgb(51, 51, 51)" stroke-width="0px"/><text class="type" text-anchor="middle" baseline-shift="30%" alignment-baseline="alphabetic" x="363.12046904428536" y="0" font-size="14px" font-family="&quot;Helvetica Neue&quot;, Helvetica, Arial, sans-serif">HAPPENED_IN</text></g></g><g class="related-pair"><g class="relationship" transform="translate(-239.3990379681941,166.73138759616643) rotate(-7.312759265212335)"><path class="relationship" d="M 23.083161860587175 1 L 759.831862055309 1 L 759.831862055309 4 L 767.831862055309 0 L 759.831862055309 -4 L 759.831862055309 -1 L 23.083161860587175 -1 Z" fill="rgba(0, 0, 0, 0.3)" stroke="rgb(51, 51, 51)" stroke-width="0px"/><text class="type" text-anchor="middle" baseline-shift="30%" alignment-baseline="alphabetic" x="391.45751195794804" y="0" font-size="14px" font-family="&quot;Helvetica Neue&quot;, Helvetica, Arial, sans-serif">PLACED_AT</text></g></g><g class="related-pair"><g class="relationship" transform="translate(-391.1551761438352,-256.09295004665256) rotate(-1.8038959753023909)"><path class="relationship" d="M 41.99869676672377 1 L 960.5840464822144 1 L 960.5840464822144 4 L 968.5840464822144 0 L 960.5840464822144 -4 L 960.5840464822144 -1 L 41.99869676672377 -1 Z" fill="rgba(0, 0, 0, 0.3)" stroke="rgb(51, 51, 51)" stroke-width="0px"/><text class="type" text-anchor="middle" baseline-shift="30%" alignment-baseline="alphabetic" x="501.29137162446904" y="0" font-size="14px" font-family="&quot;Helvetica Neue&quot;, Helvetica, Arial, sans-serif">ORIGINS_FROM</text></g></g><g class="related-pair"><g class="relationship" transform="translate(-273.4658908021598,-430.631730778078) rotate(9.163797407053787)"><path class="relationship" d="M 31.18091269349779 1 L 853.8513652561892 1 L 853.8513652561892 4 L 861.8513652561892 0 L 853.8513652561892 -4 L 853.8513652561892 -1 L 31.18091269349779 -1 Z" fill="rgba(0, 0, 0, 0.3)" stroke="rgb(51, 51, 51)" stroke-width="0px"/><text class="type" text-anchor="middle" baseline-shift="30%" alignment-baseline="alphabetic" x="442.51613897484344" y="0" font-size="14px" font-family="&quot;Helvetica Neue&quot;, Helvetica, Arial, sans-serif">ORGANIZED_AT</text></g></g><g class="related-pair"><g class="relationship" transform="translate(-391.1551761438352,-256.09295004665256) rotate(-56.00871183710437)"><path class="relationship" d="M 41.99869676672377 1 L 171.32931001183053 1 L 171.32931001183053 4 L 179.32931001183053 0 L 171.32931001183053 -4 L 171.32931001183053 -1 L 41.99869676672377 -1 Z" fill="rgba(0, 0, 0, 0.3)" stroke="rgb(51, 51, 51)" stroke-width="0px"/><text class="type" text-anchor="middle" baseline-shift="30%" alignment-baseline="alphabetic" x="106.66400338927714" y="0" font-size="14px" font-family="&quot;Helvetica Neue&quot;, Helvetica, Arial, sans-serif">HAS_CIRCUITS</text></g></g><g class="related-pair"><g class="relationship" transform="translate(-239.3990379681941,166.73138759616643) rotate(-28.075903540441853)"><path class="relationship" d="M 23.083161860587175 1 L 921.9534440698915 1 L 921.9534440698915 4 L 929.9534440698915 0 L 921.9534440698915 -4 L 921.9534440698915 -1 L 23.083161860587175 -1 Z" fill="rgba(0, 0, 0, 0.3)" stroke="rgb(51, 51, 51)" stroke-width="0px"/><text class="type" text-anchor="middle" baseline-shift="30%" alignment-baseline="alphabetic" x="472.5183029652393" y="0" font-size="14px" font-family="&quot;Helvetica Neue&quot;, Helvetica, Arial, sans-serif">MANUFACTURED_IN</text></g></g><g class="related-pair"><g class="relationship" transform="translate(-239.3990379681941,166.73138759616643) rotate(-133.19429948650978)"><path class="relationship" d="M 23.083161860587175 1 L 288.6247553012064 1 L 288.6247553012064 4 L 296.6247553012064 0 L 288.6247553012064 -4 L 288.6247553012064 -1 L 23.083161860587175 -1 Z" fill="rgba(0, 0, 0, 0.3)" stroke="rgb(51, 51, 51)" stroke-width="0px"/><text class="type" text-anchor="middle" baseline-shift="30%" alignment-baseline="alphabetic" transform="rotate(180)" x="-155.8539585808968" y="0" font-size="14px" font-family="&quot;Helvetica Neue&quot;, Helvetica, Arial, sans-serif">CONSTRUCTOR_ACCUMULATED_POINTS</text></g></g></g><g class="layer nodes"><circle class="node node-id-0" r="24.465122109691208" fill="rgb(247, 247, 249)" stroke="rgba(0, 0, 0, 0.3)" stroke-width="1px" cx="-13.45790082157249" cy="-124.78872936520423"/><g class="caption"><text class="caption node" text-anchor="middle" alignment-baseline="central" x="-13.45790082157249" y="-124.78872936520423" fill="rgb(51, 51, 51)" font-size="14px" font-family="&quot;Helvetica Neue&quot;, Helvetica, Arial, sans-serif">driver</text></g><circle class="node node-id-1" r="30.113378775799685" fill="rgb(247, 247, 249)" stroke="rgba(0, 0, 0, 0.3)" stroke-width="1px" cx="612.5445911623118" cy="-287.7038026832232"/><g class="caption"><text class="caption node" text-anchor="middle" alignment-baseline="central" x="612.5445911623118" y="-287.7038026832232" fill="rgb(51, 51, 51)" font-size="14px" font-family="&quot;Helvetica Neue&quot;, Helvetica, Arial, sans-serif">country</text></g><circle class="node node-id-2" r="36.49869676672377" fill="rgb(247, 247, 249)" stroke="rgba(0, 0, 0, 0.3)" stroke-width="1px" cx="-391.1551761438352" cy="-256.09295004665256"/><g class="caption"><text class="caption node" text-anchor="middle" alignment-baseline="central" x="-391.1551761438352" y="-256.09295004665256" fill="rgb(51, 51, 51)" font-size="14px" font-family="&quot;Helvetica Neue&quot;, Helvetica, Arial, sans-serif">grandPrix</text></g><circle class="node node-id-3" r="25.68091269349779" fill="rgb(247, 247, 249)" stroke="rgba(0, 0, 0, 0.3)" stroke-width="1px" cx="-273.4658908021598" cy="-430.631730778078"/><g class="caption"><text class="caption node" text-anchor="middle" alignment-baseline="central" x="-273.4658908021598" y="-430.631730778078" fill="rgb(51, 51, 51)" font-size="14px" font-family="&quot;Helvetica Neue&quot;, Helvetica, Arial, sans-serif">circuit</text></g><circle class="node node-id-4" r="20.809089416668375" fill="rgb(247, 247, 249)" stroke="rgba(0, 0, 0, 0.3)" stroke-width="1px" cx="548.2824677522486" cy="65.64876618776704"/><g class="caption"><text class="caption node" text-anchor="middle" alignment-baseline="central" x="548.2824677522486" y="65.64876618776704" fill="rgb(51, 51, 51)" font-size="14px" font-family="&quot;Helvetica Neue&quot;, Helvetica, Arial, sans-serif">rank</text></g><circle class="node node-id-5" r="26.049024020814418" fill="rgb(247, 247, 249)" stroke="rgba(0, 0, 0, 0.3)" stroke-width="1px" cx="-464.0256462474856" cy="-72.51935177038209"/><g class="caption"><text class="caption node" text-anchor="middle" alignment-baseline="central" x="-464.0256462474856" y="-72.51935177038209" fill="rgb(51, 51, 51)" font-size="14px" font-family="&quot;Helvetica Neue&quot;, Helvetica, Arial, sans-serif">points</text></g><circle class="node node-id-6" r="17.583161860587175" fill="rgb(247, 247, 249)" stroke="rgba(0, 0, 0, 0.3)" stroke-width="1px" cx="-239.3990379681941" cy="166.73138759616643"/><g class="caption"><text class="caption node" text-anchor="middle" alignment-baseline="central" x="-239.3990379681941" y="166.73138759616643" fill="rgb(51, 51, 51)" font-size="14px" font-family="&quot;Helvetica Neue&quot;, Helvetica, Arial, sans-serif">car</text></g><circle class="node node-id-7" r="20.573015636856855" fill="rgb(247, 247, 249)" stroke="rgba(0, 0, 0, 0.3)" stroke-width="1px" cx="305.63246898230807" cy="-430.631730778078"/><g class="caption"><text class="caption node" text-anchor="middle" alignment-baseline="central" x="305.63246898230807" y="-430.631730778078" fill="rgb(51, 51, 51)" font-size="14px" font-family="&quot;Helvetica Neue&quot;, Helvetica, Arial, sans-serif">year</text></g></g><g class="layer properties"><g class="speech-bubble node-speech-bubble" transform="translate(-13.45790082157249,-149.25385147489544) "><path class="speech-bubble-outline" transform="scale(1,-1) " d="M 0 0 L -4 12 L -82.70499610900879 12 A 4 4 0 0 0 -86.70499610900879 16 L -86.70499610900879 72 A 4 4 0 0 0 -82.70499610900879 76 L 82.70499610900879 76 A 4 4 0 0 0 86.70499610900879 72 L 86.70499610900879 16 A 4 4 0 0 0 82.70499610900879 12 L 4 12 Z" fill="rgb(255, 255, 255)" stroke="rgba(0, 0, 0, 0.5)" stroke-width="1px"/><text class="speech-bubble-content property-key" x="31.1149959564209" y="-65" alignment-baseline="central" text-anchor="end" font-size="14px" font-family="&quot;Helvetica Neue&quot;, Helvetica, Arial, sans-serif" xml:space="preserve">driver: </text><text class="speech-bubble-content property-value" x="31.1149959564209" y="-65" alignment-baseline="central" font-size="14px" font-family="&quot;Helvetica Neue&quot;, Helvetica, Arial, sans-serif">String</text><text class="speech-bubble-content property-key" x="31.1149959564209" y="-51" alignment-baseline="central" text-anchor="end" font-size="14px" font-family="&quot;Helvetica Neue&quot;, Helvetica, Arial, sans-serif" xml:space="preserve">driver_nationality: </text><text class="speech-bubble-content property-key" x="31.1149959564209" y="-37" alignment-baseline="central" text-anchor="end" font-size="14px" font-family="&quot;Helvetica Neue&quot;, Helvetica, Arial, sans-serif" xml:space="preserve">driver_dob: </text><text class="speech-bubble-content property-value" x="31.1149959564209" y="-51" alignment-baseline="central" font-size="14px" font-family="&quot;Helvetica Neue&quot;, Helvetica, Arial, sans-serif">String</text><text class="speech-bubble-content property-value" x="31.1149959564209" y="-37" alignment-baseline="central" font-size="14px" font-family="&quot;Helvetica Neue&quot;, Helvetica, Arial, sans-serif">Date</text><text class="speech-bubble-content property-key" x="31.1149959564209" y="-23" alignment-baseline="central" text-anchor="end" font-size="14px" font-family="&quot;Helvetica Neue&quot;, Helvetica, Arial, sans-serif" xml:space="preserve">driver_won: </text><text class="speech-bubble-content property-value" x="31.1149959564209" y="-23" alignment-baseline="central" font-size="14px" font-family="&quot;Helvetica Neue&quot;, Helvetica, Arial, sans-serif">Boolean</text></g><g class="speech-bubble node-speech-bubble" transform="translate(642.6579699381115,-287.7038026832232) "><path class="speech-bubble-outline" transform="scale(1,1) " d="M 0 0 L 12 -4 L 12 -7 A 4 4 0 0 1 16 -11 L 108.04999542236328 -11 A 4 4 0 0 1 112.04999542236328 -7 L 112.04999542236328 7 A 4 4 0 0 1 108.04999542236328 11 L 16 11 A 4 4 0 0 1 12 7 L 12 4 Z" fill="rgb(255, 255, 255)" stroke="rgba(0, 0, 0, 0.5)" stroke-width="1px"/><text class="speech-bubble-content property-key" x="70.97799682617188" y="0" alignment-baseline="central" text-anchor="end" font-size="14px" font-family="&quot;Helvetica Neue&quot;, Helvetica, Arial, sans-serif" xml:space="preserve">country: </text><text class="speech-bubble-content property-value" x="70.97799682617188" y="0" alignment-baseline="central" font-size="14px" font-family="&quot;Helvetica Neue&quot;, Helvetica, Arial, sans-serif">String</text></g><g class="speech-bubble node-speech-bubble" transform="translate(-427.65387291055896,-256.09295004665256) "><path class="speech-bubble-outline" transform="scale(-1,1) " d="M 0 0 L 12 -4 L 12 -28 A 4 4 0 0 1 16 -32 L 118.95600128173828 -32 A 4 4 0 0 1 122.95600128173828 -28 L 122.95600128173828 28 A 4 4 0 0 1 118.95600128173828 32 L 16 32 A 4 4 0 0 1 12 28 L 12 4 Z" fill="rgb(255, 255, 255)" stroke="rgba(0, 0, 0, 0.5)" stroke-width="1px"/><text class="speech-bubble-content property-key" x="-53.071998596191406" y="-21" alignment-baseline="central" text-anchor="end" font-size="14px" font-family="&quot;Helvetica Neue&quot;, Helvetica, Arial, sans-serif" xml:space="preserve">gp_name: </text><text class="speech-bubble-content property-value" x="-53.071998596191406" y="-21" alignment-baseline="central" font-size="14px" font-family="&quot;Helvetica Neue&quot;, Helvetica, Arial, sans-serif">String</text><text class="speech-bubble-content property-key" x="-53.071998596191406" y="-7" alignment-baseline="central" text-anchor="end" font-size="14px" font-family="&quot;Helvetica Neue&quot;, Helvetica, Arial, sans-serif" xml:space="preserve">year: </text><text class="speech-bubble-content property-value" x="-53.071998596191406" y="-7" alignment-baseline="central" font-size="14px" font-family="&quot;Helvetica Neue&quot;, Helvetica, Arial, sans-serif">Int</text><text class="speech-bubble-content property-key" x="-53.071998596191406" y="7" alignment-baseline="central" text-anchor="end" font-size="14px" font-family="&quot;Helvetica Neue&quot;, Helvetica, Arial, sans-serif" xml:space="preserve">gp_date: </text><text class="speech-bubble-content property-value" x="-53.071998596191406" y="7" alignment-baseline="central" font-size="14px" font-family="&quot;Helvetica Neue&quot;, Helvetica, Arial, sans-serif">Date</text><text class="speech-bubble-content property-key" x="-53.071998596191406" y="21" alignment-baseline="central" text-anchor="end" font-size="14px" font-family="&quot;Helvetica Neue&quot;, Helvetica, Arial, sans-serif" xml:space="preserve">country: </text><text class="speech-bubble-content property-value" x="-53.071998596191406" y="21" alignment-baseline="central" font-size="14px" font-family="&quot;Helvetica Neue&quot;, Helvetica, Arial, sans-serif">String</text></g><g class="speech-bubble node-speech-bubble" transform="translate(-291.62503831479177,-448.79087829071) "><path class="speech-bubble-outline" transform="scale(-1,-1) " d="M 0 0 L 16 12 L 155.22999572753906 12 A 4 4 0 0 1 159.22999572753906 16 L 159.22999572753906 58 A 4 4 0 0 1 155.22999572753906 62 L 16 62 A 4 4 0 0 1 12 58 L 12 16 Z" fill="rgb(255, 255, 255)" stroke="rgba(0, 0, 0, 0.5)" stroke-width="1px"/><text class="speech-bubble-content property-key" x="-53.071998596191406" y="-51" alignment-baseline="central" text-anchor="end" font-size="14px" font-family="&quot;Helvetica Neue&quot;, Helvetica, Arial, sans-serif" xml:space="preserve">circuit_name: </text><text class="speech-bubble-content property-value" x="-53.071998596191406" y="-51" alignment-baseline="central" font-size="14px" font-family="&quot;Helvetica Neue&quot;, Helvetica, Arial, sans-serif">String</text><text class="speech-bubble-content property-key" x="-53.071998596191406" y="-37" alignment-baseline="central" text-anchor="end" font-size="14px" font-family="&quot;Helvetica Neue&quot;, Helvetica, Arial, sans-serif" xml:space="preserve">circuit_location: </text><text class="speech-bubble-content property-key" x="-53.071998596191406" y="-23" alignment-baseline="central" text-anchor="end" font-size="14px" font-family="&quot;Helvetica Neue&quot;, Helvetica, Arial, sans-serif" xml:space="preserve">circuit_country: </text><text class="speech-bubble-content property-value" x="-53.071998596191406" y="-37" alignment-baseline="central" font-size="14px" font-family="&quot;Helvetica Neue&quot;, Helvetica, Arial, sans-serif">String</text><text class="speech-bubble-content property-value" x="-53.071998596191406" y="-23" alignment-baseline="central" font-size="14px" font-family="&quot;Helvetica Neue&quot;, Helvetica, Arial, sans-serif">String</text></g><g class="speech-bubble node-speech-bubble" transform="translate(569.091557168917,65.64876618776704) "><path class="speech-bubble-outline" transform="scale(1,1) " d="M 0 0 L 12 -4 L 12 -7 A 4 4 0 0 1 16 -11 L 66.83399963378906 -11 A 4 4 0 0 1 70.83399963378906 -7 L 70.83399963378906 7 A 4 4 0 0 1 66.83399963378906 11 L 16 11 A 4 4 0 0 1 12 7 L 12 4 Z" fill="rgb(255, 255, 255)" stroke="rgba(0, 0, 0, 0.5)" stroke-width="1px"/><text class="speech-bubble-content property-key" x="51.013999938964844" y="0" alignment-baseline="central" text-anchor="end" font-size="14px" font-family="&quot;Helvetica Neue&quot;, Helvetica, Arial, sans-serif" xml:space="preserve">rank: </text><text class="speech-bubble-content property-value" x="51.013999938964844" y="0" alignment-baseline="central" font-size="14px" font-family="&quot;Helvetica Neue&quot;, Helvetica, Arial, sans-serif">Int</text></g><g class="speech-bubble node-speech-bubble" transform="translate(-490.07467026830005,-72.51935177038209) "><path class="speech-bubble-outline" transform="scale(-1,1) " d="M 0 0 L 12 -4 L 12 -7 A 4 4 0 0 1 16 -11 L 78.2439956665039 -11 A 4 4 0 0 1 82.2439956665039 -7 L 82.2439956665039 7 A 4 4 0 0 1 78.2439956665039 11 L 16 11 A 4 4 0 0 1 12 7 L 12 4 Z" fill="rgb(255, 255, 255)" stroke="rgba(0, 0, 0, 0.5)" stroke-width="1px"/><text class="speech-bubble-content property-key" x="-31.81999969482422" y="0" alignment-baseline="central" text-anchor="end" font-size="14px" font-family="&quot;Helvetica Neue&quot;, Helvetica, Arial, sans-serif" xml:space="preserve">points: </text><text class="speech-bubble-content property-value" x="-31.81999969482422" y="0" alignment-baseline="central" font-size="14px" font-family="&quot;Helvetica Neue&quot;, Helvetica, Arial, sans-serif">Int</text></g><g class="speech-bubble node-speech-bubble" transform="translate(-239.3990379681941,184.3145494567536) "><path class="speech-bubble-outline" transform="scale(1,1) " d="M 0 0 L -4 12 L -93.72999954223633 12 A 4 4 0 0 0 -97.72999954223633 16 L -97.72999954223633 44 A 4 4 0 0 0 -93.72999954223633 48 L 93.72999954223633 48 A 4 4 0 0 0 97.72999954223633 44 L 97.72999954223633 16 A 4 4 0 0 0 93.72999954223633 12 L 4 12 Z" fill="rgb(255, 255, 255)" stroke="rgba(0, 0, 0, 0.5)" stroke-width="1px"/><text class="speech-bubble-content property-key" x="56.65800094604492" y="23" alignment-baseline="central" text-anchor="end" font-size="14px" font-family="&quot;Helvetica Neue&quot;, Helvetica, Arial, sans-serif" xml:space="preserve">constructor_nationality: </text><text class="speech-bubble-content property-value" x="56.65800094604492" y="23" alignment-baseline="central" font-size="14px" font-family="&quot;Helvetica Neue&quot;, Helvetica, Arial, sans-serif">String</text><text class="speech-bubble-content property-key" x="56.65800094604492" y="37" alignment-baseline="central" text-anchor="end" font-size="14px" font-family="&quot;Helvetica Neue&quot;, Helvetica, Arial, sans-serif" xml:space="preserve">constructor_name: </text><text class="speech-bubble-content property-value" x="56.65800094604492" y="37" alignment-baseline="central" font-size="14px" font-family="&quot;Helvetica Neue&quot;, Helvetica, Arial, sans-serif">String</text></g><g class="speech-bubble node-speech-bubble" transform="translate(326.2054846191649,-430.631730778078) "><path class="speech-bubble-outline" transform="scale(1,1) " d="M 0 0 L 12 -4 L 12 -7 A 4 4 0 0 1 16 -11 L 66.30199813842773 -11 A 4 4 0 0 1 70.30199813842773 -7 L 70.30199813842773 7 A 4 4 0 0 1 66.30199813842773 11 L 16 11 A 4 4 0 0 1 12 7 L 12 4 Z" fill="rgb(255, 255, 255)" stroke="rgba(0, 0, 0, 0.5)" stroke-width="1px"/><text class="speech-bubble-content property-key" x="50.481998443603516" y="0" alignment-baseline="central" text-anchor="end" font-size="14px" font-family="&quot;Helvetica Neue&quot;, Helvetica, Arial, sans-serif" xml:space="preserve">year: </text><text class="speech-bubble-content property-value" x="50.481998443603516" y="0" alignment-baseline="central" font-size="14px" font-family="&quot;Helvetica Neue&quot;, Helvetica, Arial, sans-serif">Int</text></g></g><g class="layer overlay"><circle class="node overlay" r="24.965122109691208" stroke="none" fill="rgba(255, 255, 255, 0)" cx="-13.45790082157249" cy="-124.78872936520423"/><circle class="node ring" r="29.965122109691208" fill="none" stroke="rgba(255, 255, 255, 0)" stroke-width="10px" cx="-13.45790082157249" cy="-124.78872936520423"/><circle class="node overlay" r="30.613378775799685" stroke="none" fill="rgba(255, 255, 255, 0)" cx="612.5445911623118" cy="-287.7038026832232"/><circle class="node ring" r="35.61337877579969" fill="none" stroke="rgba(255, 255, 255, 0)" stroke-width="10px" cx="612.5445911623118" cy="-287.7038026832232"/><path class="relationship overlay" fill="rgba(255, 255, 255, 0)" stroke="rgba(255, 255, 255, 0)" stroke-width="10px" transform="translate(-13.45790082157249,-124.78872936520423) rotate(-14.587454450174118)" d="M 29.965122109691208 1 L 603.2408869473604 1 L 603.2408869473604 4 L 611.2408869473604 0 L 603.2408869473604 -4 L 603.2408869473604 -1 L 29.965122109691208 -1 Z"/><circle class="node overlay" r="36.99869676672377" stroke="none" fill="rgba(255, 255, 255, 0)" cx="-391.1551761438352" cy="-256.09295004665256"/><circle class="node ring" r="41.99869676672377" fill="none" stroke="rgba(255, 255, 255, 0)" stroke-width="10px" cx="-391.1551761438352" cy="-256.09295004665256"/><path class="relationship overlay" fill="rgba(255, 255, 255, 0)" stroke="rgba(255, 255, 255, 0)" stroke-width="10px" transform="translate(-13.45790082157249,-124.78872936520423) rotate(-160.83029540593378)" d="M 29.965122109691208 1 L 349.8713198069418 1 L 349.8713198069418 4 L 357.8713198069418 0 L 349.8713198069418 -4 L 349.8713198069418 -1 L 29.965122109691208 -1 Z"/><circle class="node overlay" r="26.18091269349779" stroke="none" fill="rgba(255, 255, 255, 0)" cx="-273.4658908021598" cy="-430.631730778078"/><circle class="node ring" r="31.18091269349779" fill="none" stroke="rgba(255, 255, 255, 0)" stroke-width="10px" cx="-273.4658908021598" cy="-430.631730778078"/><path class="relationship overlay" fill="rgba(255, 255, 255, 0)" stroke="rgba(255, 255, 255, 0)" stroke-width="10px" transform="translate(-13.45790082157249,-124.78872936520423) rotate(-130.3690431083735)" d="M 29.965122109691208 1 L 362.2466603093794 1 L 362.2466603093794 4 L 370.2466603093794 0 L 362.2466603093794 -4 L 362.2466603093794 -1 L 29.965122109691208 -1 Z"/><circle class="node overlay" r="21.309089416668375" stroke="none" fill="rgba(255, 255, 255, 0)" cx="548.2824677522486" cy="65.64876618776704"/><circle class="node ring" r="26.309089416668375" fill="none" stroke="rgba(255, 255, 255, 0)" stroke-width="10px" cx="548.2824677522486" cy="65.64876618776704"/><path class="relationship overlay" fill="rgba(255, 255, 255, 0)" stroke="rgba(255, 255, 255, 0)" stroke-width="10px" transform="translate(-13.45790082157249,-124.78872936520423) rotate(18.727345960525767)" d="M 29.965122109691208 1 L 558.8339636472114 1 L 558.8339636472114 4 L 566.8339636472114 0 L 558.8339636472114 -4 L 558.8339636472114 -1 L 29.965122109691208 -1 Z"/><circle class="node overlay" r="26.549024020814418" stroke="none" fill="rgba(255, 255, 255, 0)" cx="-464.0256462474856" cy="-72.51935177038209"/><circle class="node ring" r="31.549024020814418" fill="none" stroke="rgba(255, 255, 255, 0)" stroke-width="10px" cx="-464.0256462474856" cy="-72.51935177038209"/><path class="relationship overlay" fill="rgba(255, 255, 255, 0)" stroke="rgba(255, 255, 255, 0)" stroke-width="10px" transform="translate(-13.45790082157249,-124.78872936520423) rotate(173.38282053978415)" d="M 29.965122109691208 1 L 414.0404170515506 1 L 414.0404170515506 4 L 422.0404170515506 0 L 414.0404170515506 -4 L 414.0404170515506 -1 L 29.965122109691208 -1 Z"/><circle class="node overlay" r="18.083161860587175" stroke="none" fill="rgba(255, 255, 255, 0)" cx="-239.3990379681941" cy="166.73138759616643"/><circle class="node ring" r="23.083161860587175" fill="none" stroke="rgba(255, 255, 255, 0)" stroke-width="10px" cx="-239.3990379681941" cy="166.73138759616643"/><path class="relationship overlay" fill="rgba(255, 255, 255, 0)" stroke="rgba(255, 255, 255, 0)" stroke-width="10px" transform="translate(-13.45790082157249,-124.78872936520423) rotate(127.77728625672958)" d="M 29.965122109691208 1 L 337.7438654140957 1 L 337.7438654140957 4 L 345.7438654140957 0 L 337.7438654140957 -4 L 337.7438654140957 -1 L 29.965122109691208 -1 Z"/><circle class="node overlay" r="21.073015636856855" stroke="none" fill="rgba(255, 255, 255, 0)" cx="305.63246898230807" cy="-430.631730778078"/><circle class="node ring" r="26.073015636856855" fill="none" stroke="rgba(255, 255, 255, 0)" stroke-width="10px" cx="305.63246898230807" cy="-430.631730778078"/><path class="relationship overlay" fill="rgba(255, 255, 255, 0)" stroke="rgba(255, 255, 255, 0)" stroke-width="10px" transform="translate(-273.4658908021598,-430.631730778078) rotate(0)" d="M 31.18091269349779 1 L 545.0253441476109 1 L 545.0253441476109 4 L 553.0253441476109 0 L 545.0253441476109 -4 L 545.0253441476109 -1 L 31.18091269349779 -1 Z"/><path class="relationship overlay" fill="rgba(255, 255, 255, 0)" stroke="rgba(255, 255, 255, 0)" stroke-width="10px" transform="translate(-391.1551761438352,-256.09295004665256) rotate(-14.062698200806382)" d="M 41.99869676672377 1 L 684.242241321847 1 L 684.242241321847 4 L 692.242241321847 0 L 684.242241321847 -4 L 684.242241321847 -1 L 41.99869676672377 -1 Z"/><path class="relationship overlay" fill="rgba(255, 255, 255, 0)" stroke="rgba(255, 255, 255, 0)" stroke-width="10px" transform="translate(-239.3990379681941,166.73138759616643) rotate(-7.312759265212335)" d="M 23.083161860587175 1 L 759.831862055309 1 L 759.831862055309 4 L 767.831862055309 0 L 759.831862055309 -4 L 759.831862055309 -1 L 23.083161860587175 -1 Z"/><path class="relationship overlay" fill="rgba(255, 255, 255, 0)" stroke="rgba(255, 255, 255, 0)" stroke-width="10px" transform="translate(-391.1551761438352,-256.09295004665256) rotate(-1.8038959753023909)" d="M 41.99869676672377 1 L 960.5840464822144 1 L 960.5840464822144 4 L 968.5840464822144 0 L 960.5840464822144 -4 L 960.5840464822144 -1 L 41.99869676672377 -1 Z"/><path class="relationship overlay" fill="rgba(255, 255, 255, 0)" stroke="rgba(255, 255, 255, 0)" stroke-width="10px" transform="translate(-273.4658908021598,-430.631730778078) rotate(9.163797407053787)" d="M 31.18091269349779 1 L 853.8513652561892 1 L 853.8513652561892 4 L 861.8513652561892 0 L 853.8513652561892 -4 L 853.8513652561892 -1 L 31.18091269349779 -1 Z"/><path class="relationship overlay" fill="rgba(255, 255, 255, 0)" stroke="rgba(255, 255, 255, 0)" stroke-width="10px" transform="translate(-391.1551761438352,-256.09295004665256) rotate(-56.00871183710437)" d="M 41.99869676672377 1 L 171.32931001183053 1 L 171.32931001183053 4 L 179.32931001183053 0 L 171.32931001183053 -4 L 171.32931001183053 -1 L 41.99869676672377 -1 Z"/><path class="relationship overlay" fill="rgba(255, 255, 255, 0)" stroke="rgba(255, 255, 255, 0)" stroke-width="10px" transform="translate(-239.3990379681941,166.73138759616643) rotate(-28.075903540441853)" d="M 23.083161860587175 1 L 921.9534440698915 1 L 921.9534440698915 4 L 929.9534440698915 0 L 921.9534440698915 -4 L 921.9534440698915 -1 L 23.083161860587175 -1 Z"/><path class="relationship overlay" fill="rgba(255, 255, 255, 0)" stroke="rgba(255, 255, 255, 0)" stroke-width="10px" transform="translate(-239.3990379681941,166.73138759616643) rotate(-133.19429948650978)" d="M 23.083161860587175 1 L 288.6247553012064 1 L 288.6247553012064 4 L 296.6247553012064 0 L 288.6247553012064 -4 L 288.6247553012064 -1 L 23.083161860587175 -1 Z"/></g></svg>